<?xml version="1.0" standalone="no"?>
<!DOCTYPE svg PUBLIC "-//W3C//DTD SVG 20010904//EN"
 "http://www.w3.org/TR/2001/REC-SVG-20010904/DTD/svg10.dtd">
<svg version="1.0" xmlns="http://www.w3.org/2000/svg"
 width="600.000000pt" height="635.000000pt" viewBox="0 0 600.000000 635.000000"
 preserveAspectRatio="xMidYMid meet" aria-hidden="true">
<metadata>
Created by potrace 1.16, written by Peter Selinger 2001-2019
</metadata>
<g transform="translate(0.000000,635.000000) scale(0.100000,-0.100000)"
fill="#000000" stroke="none">
<path d="M3280 6347 c-3 -3 -48 -9 -100 -12 -114 -8 -164 -12 -250 -20 -36 -3
-87 -8 -115 -10 -27 -2 -81 -7 -120 -10 -38 -3 -97 -8 -130 -10 -33 -2 -130
-11 -215 -20 -85 -8 -175 -17 -200 -20 -146 -12 -193 -16 -260 -20 -41 -2
-100 -7 -130 -10 -30 -3 -73 -8 -95 -10 -22 -2 -71 -6 -110 -10 -99 -10 -116
-11 -355 -29 -118 -9 -228 -18 -245 -21 -27 -4 -85 -9 -243 -19 -63 -5 -102
-27 -102 -60 0 -17 9 -28 29 -37 40 -18 65 -95 62 -196 -3 -95 -12 -119 -50
-128 -16 -3 -35 -12 -41 -19 -6 -8 -42 -24 -80 -36 -78 -25 -99 -42 -80 -64 6
-8 26 -20 44 -26 18 -6 34 -16 35 -23 1 -6 3 -103 6 -214 l4 -203 -34 6 c-37
6 -75 -9 -75 -30 0 -29 31 -44 237 -118 81 -29 95 -37 108 -66 21 -42 46 -172
48 -245 2 -54 0 -58 -23 -63 -14 -3 -54 -14 -90 -24 -36 -11 -92 -26 -125 -35
-33 -9 -76 -21 -95 -26 -19 -5 -46 -12 -60 -15 -14 -3 -33 -7 -42 -10 -9 -3
-25 -7 -35 -9 -10 -2 -47 -12 -83 -23 -36 -11 -84 -23 -106 -27 -25 -4 -51
-16 -65 -31 l-23 -24 34 -35 c19 -19 39 -35 45 -35 14 0 66 -64 80 -98 9 -22
13 -161 6 -219 0 -8 -16 -13 -40 -13 -53 0 -71 -8 -82 -36 -5 -13 -12 -24 -16
-23 -25 4 -42 -3 -48 -20 -9 -29 2 -44 49 -69 34 -18 52 -38 84 -95 46 -82 47
-87 76 -215 34 -151 28 -339 -13 -457 -11 -32 -22 -59 -23 -60 -2 -2 -19 -4
-38 -6 -58 -5 -98 -57 -72 -95 11 -16 133 -58 257 -89 61 -15 114 -29 118 -32
5 -3 2 -12 -6 -21 -38 -43 -26 -102 24 -122 27 -11 99 -105 99 -129 0 -6 6
-25 14 -43 25 -60 37 -107 41 -162 5 -60 -1 -68 -55 -84 -19 -6 -73 -26 -120
-45 -132 -55 -319 -128 -380 -149 -56 -19 -110 -61 -110 -85 0 -36 58 -82 93
-75 11 3 24 -35 32 -93 4 -28 9 -63 12 -80 20 -120 25 -198 23 -330 -2 -117
-4 -166 -8 -201 -1 -7 -17 -11 -37 -10 -19 1 -43 -5 -54 -14 -17 -13 -18 -19
-8 -50 17 -49 45 -61 442 -195 142 -48 341 -118 365 -128 8 -4 42 -15 75 -26
33 -11 119 -40 190 -66 72 -25 180 -63 240 -84 61 -21 137 -48 170 -60 95 -35
256 -91 309 -108 27 -8 74 -25 103 -38 29 -13 53 -22 53 -20 0 5 58 -15 105
-35 37 -17 230 -82 255 -87 14 -3 30 -9 35 -13 6 -4 46 -19 90 -34 44 -14 179
-60 300 -101 121 -42 229 -79 240 -83 11 -3 58 -6 105 -6 65 0 93 4 120 19 53
29 193 118 208 132 7 7 17 13 22 13 5 0 15 6 22 13 22 20 77 57 84 57 4 0 17
8 28 19 12 10 140 98 286 196 146 97 274 185 286 196 11 10 23 19 27 19 4 0
95 60 202 133 107 72 220 148 249 167 30 19 106 71 168 114 62 43 121 81 131
84 9 2 17 8 17 12 0 6 67 53 156 110 53 34 649 435 654 441 3 3 23 16 45 29
22 13 59 39 81 57 45 36 54 65 71 218 13 123 5 368 -13 397 -3 4 -8 20 -10 35
-9 49 -58 138 -96 175 -35 33 -49 40 -116 53 -13 2 -31 6 -40 9 -9 3 -33 8
-52 11 -19 2 -82 16 -140 31 -58 14 -114 27 -125 30 -11 2 -31 6 -45 9 -14 3
-34 7 -45 9 -11 2 -40 9 -63 16 -35 9 -42 14 -36 28 4 9 9 83 12 163 3 113 1
159 -11 199 l-15 52 49 48 c27 26 49 52 49 58 0 6 6 17 13 24 7 7 21 31 31 53
9 22 21 49 26 60 32 71 48 265 29 358 -6 29 -12 63 -15 77 -14 77 -74 219
-119 286 -25 37 -114 86 -176 97 -45 9 -109 30 -109 37 0 4 6 28 14 54 28 93
9 287 -33 333 -9 10 -24 30 -33 45 -15 23 -26 27 -69 30 l-52 3 -1 96 -1 96
85 7 c47 3 114 9 149 13 l63 6 -6 96 c-4 53 -9 168 -11 256 -3 88 -7 185 -11
216 -6 55 -5 56 35 95 41 41 60 77 66 127 2 16 6 41 10 55 11 53 -12 161 -47
219 -36 59 -73 85 -128 89 -32 2 -70 6 -185 19 -115 12 -222 23 -240 22 -18 0
-97 7 -205 19 -19 2 -96 11 -170 20 -74 9 -155 18 -180 19 -25 2 -76 6 -115
10 -38 4 -86 8 -105 10 -19 2 -60 7 -90 10 -30 3 -75 8 -100 10 -25 2 -67 7
-95 10 -90 10 -230 17 -235 12z m235 -122 c178 -14 362 -31 430 -40 17 -2 84
-8 150 -14 471 -41 623 -56 620 -62 -2 -3 -73 -9 -158 -12 -84 -4 -238 -14
-343 -21 -104 -8 -272 -20 -374 -26 -222 -13 -629 -40 -685 -45 -98 -9 -802
-55 -875 -57 -50 -1 -297 21 -653 58 -221 23 -444 42 -527 44 -32 1 -33 2 -10
10 30 10 341 35 1340 111 85 6 166 13 180 14 68 7 612 49 690 54 14 0 111 -6
215 -14z m1472 -177 c54 -60 69 -157 34 -230 -32 -69 -51 -84 -117 -96 -32 -5
-60 -9 -61 -8 -2 1 2 29 7 62 19 112 5 231 -27 241 -8 3 -9 -6 -3 -32 5 -21 7
-47 5 -58 -2 -12 -6 -44 -9 -72 -6 -50 -23 -105 -41 -137 -11 -18 -137 -36
-355 -53 -47 -3 -175 -15 -285 -25 -110 -11 -261 -24 -335 -30 -74 -5 -198
-16 -275 -24 -77 -8 -230 -22 -340 -30 -357 -29 -449 -36 -494 -42 l-44 -6 7
64 c8 71 -8 198 -31 241 -8 16 -16 27 -18 25 -2 -1 2 -30 8 -63 7 -44 7 -83
-2 -143 -18 -126 -20 -128 -105 -136 -39 -4 -95 -9 -125 -13 l-54 -6 9 69 c11
84 12 224 2 280 l-8 41 108 11 c59 6 172 16 252 22 80 6 294 22 475 36 182 13
389 29 460 34 72 6 238 19 370 30 132 11 314 25 405 31 91 6 235 17 320 24
234 19 243 19 267 -7z m-4052 -47 c128 -15 176 -19 295 -31 58 -5 220 -21 360
-34 140 -14 305 -30 365 -36 174 -16 295 -34 295 -42 0 -4 -19 -5 -42 -3 -100
12 -597 55 -624 54 -35 -2 27 -13 121 -22 273 -28 363 -36 453 -42 77 -5 102
-11 102 -21 0 -18 2 -18 -220 6 -102 11 -210 19 -240 19 -46 -1 381 -57 448
-58 13 -1 22 -7 22 -16 0 -18 -2 -18 -105 -5 -44 5 -127 14 -185 20 -58 5
-168 17 -245 25 -132 14 -222 18 -200 10 6 -3 156 -20 334 -40 379 -41 401
-44 401 -57 0 -11 -65 -6 -330 22 -275 30 -372 33 -165 6 99 -14 246 -32 327
-42 81 -9 153 -21 160 -25 32 -20 -14 -21 -145 -5 -265 33 -282 35 -317 35
-44 -1 151 -33 330 -55 74 -8 137 -18 139 -20 16 -16 -33 -15 -192 4 -272 32
-389 44 -394 38 -3 -2 15 -7 39 -10 342 -48 484 -66 509 -66 20 0 29 -4 26
-12 -2 -7 -10 -12 -18 -11 -8 1 -50 6 -94 12 -161 22 -473 53 -491 49 -17 -3
79 -17 326 -49 138 -17 270 -42 270 -52 0 -10 -65 -4 -320 29 -220 30 -318 38
-278 25 15 -5 44 -11 65 -14 21 -3 83 -12 138 -20 55 -9 156 -23 225 -32 68
-10 134 -21 145 -26 30 -12 14 -11 -155 10 -85 11 -189 23 -230 26 -41 4 -165
18 -275 31 -110 14 -240 29 -290 34 -241 24 -485 55 -485 62 0 4 28 6 63 3
l62 -4 -55 12 c-39 9 -56 18 -58 30 -3 16 3 18 60 13 l63 -5 -62 10 c-43 7
-63 15 -63 25 0 12 13 14 68 10 71 -6 70 -5 -45 20 -13 2 -23 9 -23 15 0 7 21
9 63 6 l62 -5 -62 10 c-75 13 -88 37 -20 39 23 1 33 3 22 6 -11 2 -30 6 -42 9
-13 2 -23 11 -23 20 0 15 23 15 115 -2 45 -8 150 -16 145 -11 -3 3 -25 8 -50
12 -25 3 -69 10 -99 15 -30 6 -70 10 -88 10 -24 0 -33 5 -33 16 0 14 8 16 48
10 26 -3 79 -8 117 -11 55 -3 44 0 -47 14 -114 17 -138 24 -125 37 3 3 80 -2
171 -11 91 -9 171 -15 178 -12 7 2 -41 10 -107 16 -66 7 -147 16 -179 20 -35
3 -61 11 -64 19 -3 10 4 12 29 8 19 -3 75 -10 124 -15z m4034 -608 c9 -180 9
-248 1 -253 -6 -4 -97 -14 -203 -23 -106 -10 -202 -19 -213 -21 -12 -3 -118
-14 -235 -25 -382 -37 -763 -73 -819 -77 -30 -3 -208 -18 -395 -34 -187 -16
-434 -36 -550 -45 -115 -9 -223 -18 -240 -20 -16 -2 -88 -9 -160 -14 -566 -45
-676 -53 -680 -50 -7 8 -37 580 -30 587 1 2 106 14 231 26 l229 23 145 -24
c180 -30 295 -31 580 -4 238 23 813 73 1100 96 235 19 546 45 585 51 17 2 93
9 170 15 77 6 199 17 270 24 72 7 146 13 166 14 l35 1 13 -247z m-3953 192
c98 -14 241 -32 318 -40 76 -8 195 -23 265 -32 l126 -18 -65 -6 c-141 -14
-278 -9 -432 16 -84 13 -193 29 -243 35 -158 18 -315 44 -315 51 0 9 43 15
116 17 28 1 132 -9 230 -23z m-16 -111 c135 -25 271 -50 302 -54 64 -9 81 -17
72 -31 -3 -5 -9 -7 -12 -5 -4 2 -28 7 -52 11 -25 3 -63 10 -85 15 -22 4 -76
11 -120 15 -44 3 -89 8 -100 11 l-20 4 20 -9 c11 -4 83 -23 160 -41 211 -48
215 -50 215 -65 0 -19 -1 -19 -159 10 -74 14 -146 25 -160 24 -31 -1 103 -46
164 -55 79 -12 155 -37 155 -50 0 -18 12 -18 -152 12 -76 14 -147 24 -156 22
-24 -5 107 -44 213 -63 83 -15 110 -28 99 -46 -5 -9 -46 -3 -188 26 -174 37
-103 4 102 -47 73 -18 92 -26 92 -41 0 -13 -6 -16 -22 -12 -13 2 -36 6 -53 9
-16 2 -83 16 -148 31 -66 14 -121 24 -124 22 -6 -7 102 -41 226 -72 120 -30
121 -30 121 -56 0 -11 -4 -18 -9 -15 -5 3 -37 12 -72 20 -35 7 -120 28 -187
46 -68 17 -126 30 -128 27 -7 -7 107 -45 231 -77 61 -15 122 -33 138 -39 28
-11 38 -41 13 -41 -20 0 -153 33 -264 65 -118 34 -143 28 -31 -8 220 -70 275
-87 291 -87 15 0 36 -36 26 -45 -2 -2 -40 7 -83 20 -44 13 -129 38 -188 55
-60 18 -110 30 -113 27 -7 -6 82 -40 231 -87 72 -23 136 -43 144 -46 8 -2 11
-7 8 -11 -6 -6 -38 3 -212 57 -152 47 -498 148 -532 155 -35 7 -55 25 -28 25
10 0 44 -7 77 -16 33 -8 67 -14 77 -12 9 2 -24 15 -73 28 -79 22 -109 40 -93
56 2 3 42 -2 87 -11 102 -21 116 -13 18 10 -88 21 -108 31 -108 52 0 12 7 14
33 8 17 -3 50 -8 72 -11 33 -3 28 0 -27 18 -53 16 -68 25 -68 40 0 17 5 19 48
14 l47 -5 -47 15 c-39 12 -48 20 -48 38 0 22 3 23 43 16 58 -11 60 -4 3 11
-33 8 -46 16 -46 29 0 15 7 17 43 14 l42 -4 -42 16 c-57 21 -60 51 -5 47 l37
-3 -42 20 c-54 24 -56 48 -5 52 l37 4 -34 10 c-19 5 -36 15 -38 21 -3 7 19 6
69 -3 40 -8 183 -35 318 -60z m3689 -494 c17 -80 13 -234 -9 -338 -24 -115
-32 -130 -73 -136 -54 -9 -432 -75 -602 -106 -88 -16 -225 -41 -305 -55 -80
-14 -226 -41 -325 -60 -99 -19 -268 -50 -375 -69 -107 -19 -235 -43 -285 -52
-98 -18 -379 -62 -382 -60 -1 0 3 24 8 51 5 28 10 100 10 160 1 174 -23 290
-77 376 l-23 37 77 11 c42 6 131 22 197 36 171 35 412 82 465 90 25 4 54 9 65
12 51 11 155 23 335 38 107 9 310 28 450 41 140 14 309 30 375 35 66 6 176 16
245 23 69 7 146 14 172 15 l46 1 11 -50z m-3625 -110 c105 -33 227 -72 271
-87 70 -22 89 -25 155 -18 41 4 80 7 85 7 6 0 48 -7 95 -16 82 -16 332 -64
455 -88 60 -11 85 -23 85 -39 0 -19 -71 -10 -536 66 -94 16 -120 18 -113 11 7
-8 354 -83 509 -111 80 -15 151 -31 158 -37 22 -19 13 -30 -20 -24 -18 3 -76
12 -128 20 -52 8 -149 24 -215 35 -175 29 -222 34 -210 23 16 -14 165 -49 355
-82 250 -43 245 -42 248 -66 l3 -21 -123 23 c-68 13 -157 28 -198 34 -41 5
-113 17 -159 26 -46 8 -85 13 -88 11 -7 -7 275 -74 477 -112 97 -19 100 -20
100 -44 0 -23 17 -26 -539 79 -246 47 -202 26 99 -45 85 -21 169 -39 185 -42
17 -2 80 -14 140 -27 100 -20 110 -24 113 -45 3 -21 0 -23 -25 -19 -56 10
-395 78 -587 119 -76 16 -141 27 -143 25 -11 -11 292 -88 477 -122 47 -9 117
-24 155 -34 39 -10 82 -21 98 -24 18 -4 27 -13 27 -26 0 -11 -6 -20 -12 -20
-24 0 -282 51 -408 81 -69 16 -163 36 -210 44 -47 9 -94 18 -105 21 l-20 4 20
-9 c25 -12 283 -79 465 -121 264 -60 270 -62 270 -82 0 -25 -22 -23 -195 18
-82 19 -204 48 -270 64 -172 41 -285 63 -292 56 -4 -3 -2 -6 3 -6 5 0 50 -12
99 -26 111 -30 634 -164 642 -164 4 0 2 -5 -3 -10 -7 -7 -133 20 -395 85 -211
53 -496 123 -634 157 -327 79 -355 87 -355 97 0 4 82 -9 183 -30 100 -20 196
-40 212 -43 60 -11 -94 32 -225 64 -177 42 -163 36 -151 58 10 18 13 18 118
-3 59 -12 135 -25 168 -28 53 -5 49 -4 -30 13 -241 53 -255 58 -237 87 6 10
31 8 112 -7 57 -11 108 -19 114 -17 11 4 -121 41 -186 53 -32 5 -38 10 -38 30
0 23 2 24 58 19 l57 -4 -45 10 c-25 6 -51 13 -57 15 -7 2 -13 15 -13 29 0 19
5 25 23 26 22 0 22 0 1 9 -12 4 -24 18 -27 30 -6 22 -4 22 61 17 l67 -6 -65
16 c-36 8 -66 16 -66 17 -1 0 -5 11 -8 24 -7 22 -6 22 51 17 66 -7 55 8 -15
20 -34 5 -45 13 -53 32 -5 14 -8 27 -6 29 2 2 28 0 57 -6 73 -14 74 -5 3 16
-53 16 -89 34 -69 34 4 0 94 -27 200 -60z m3804 -225 c37 -70 37 -176 0 -256
-22 -48 -32 -59 -64 -69 -22 -7 -68 -26 -104 -42 -96 -44 -185 -83 -280 -123
-47 -20 -103 -45 -125 -55 -22 -10 -83 -37 -135 -60 -52 -23 -113 -50 -135
-60 -22 -10 -83 -37 -135 -60 -52 -23 -113 -50 -135 -60 -75 -34 -250 -111
-320 -141 -87 -37 -163 -70 -236 -102 l-56 -25 -5 152 c-5 157 -6 162 -66 278
-2 4 63 40 145 79 259 125 253 123 448 154 50 7 101 17 115 20 14 4 97 19 185
35 88 15 270 49 405 73 135 25 266 49 292 52 44 7 49 10 58 44 5 20 17 60 25
90 8 30 15 67 15 82 0 16 9 37 21 48 29 26 52 12 87 -54z m-4058 -180 c-11
-39 -16 -45 -40 -45 -34 0 -56 -22 -38 -38 7 -6 57 -22 111 -35 98 -25 143
-44 77 -33 -76 13 -446 56 -489 57 -87 1 -92 14 -16 37 39 11 84 24 100 27 17
4 73 19 125 35 111 32 173 47 179 43 2 -1 -2 -23 -9 -48z m-135 -185 c138 -16
333 -39 435 -50 199 -22 230 -28 390 -71 58 -15 161 -40 230 -56 98 -22 118
-29 95 -33 -21 -4 1 -10 75 -19 58 -7 139 -22 180 -33 54 -14 104 -20 180 -19
58 1 155 -5 215 -13 170 -23 339 -44 458 -57 96 -11 107 -14 107 -32 0 -15 -5
-18 -22 -14 -21 6 -322 41 -553 66 -55 6 -156 18 -225 26 -181 23 -510 55
-545 54 -38 -2 46 -14 190 -29 61 -6 155 -17 210 -25 55 -7 145 -19 200 -25
229 -25 624 -71 684 -80 61 -9 92 -23 78 -36 -3 -3 -102 6 -219 20 -416 51
-715 85 -838 96 -69 6 -145 14 -170 17 -25 3 -43 3 -40 0 3 -3 48 -11 100 -17
169 -20 569 -70 800 -100 124 -16 259 -33 300 -37 57 -6 75 -12 75 -23 0 -15
-4 -15 -75 -7 -264 34 -722 86 -795 91 l-70 6 80 -15 c44 -8 136 -22 205 -30
69 -9 222 -29 340 -45 118 -16 239 -32 268 -35 54 -7 73 -25 26 -25 -34 0
-227 23 -509 60 -282 37 -615 73 -621 68 -2 -3 53 -13 123 -22 71 -10 205 -29
298 -43 94 -13 222 -31 285 -38 298 -36 450 -59 446 -69 -2 -6 -8 -10 -13 -9
-4 1 -35 4 -68 8 -33 4 -145 18 -250 31 -104 14 -253 31 -330 39 -77 9 -230
27 -339 41 -110 14 -209 24 -220 22 -21 -3 238 -41 669 -99 303 -40 546 -77
553 -84 3 -3 3 -7 1 -9 -9 -7 -266 22 -859 99 -102 13 -221 26 -265 29 -66 5
-53 1 70 -19 83 -13 220 -34 305 -45 152 -20 195 -26 235 -35 11 -2 61 -9 110
-14 188 -22 395 -55 395 -63 0 -11 -51 -10 -125 1 -33 6 -78 12 -100 16 -22 3
-67 10 -100 15 -33 5 -103 14 -155 20 -138 15 -812 105 -1155 155 -93 13 -195
27 -225 30 -68 8 -468 60 -610 80 -58 8 -144 20 -193 26 -97 13 -106 23 -19
22 l57 -1 -52 10 c-50 10 -67 28 -43 43 9 5 76 -2 195 -21 22 -4 37 -4 33 1
-3 4 -54 15 -113 25 -59 10 -109 21 -113 24 -18 19 24 22 113 10 147 -21 161
-12 18 11 -110 18 -136 28 -118 47 3 3 38 -1 78 -9 39 -7 81 -12 92 -10 11 1
-14 9 -55 15 -114 19 -120 21 -120 38 0 14 9 15 68 9 37 -3 78 -9 92 -12 14
-3 22 -3 19 1 -3 3 -43 13 -88 21 -86 15 -101 20 -101 36 0 14 39 11 229 -16
95 -14 183 -25 194 -25 54 0 -8 12 -209 41 -120 17 -222 36 -226 42 -14 22 -8
29 20 23 15 -3 110 -17 212 -31 102 -14 195 -27 208 -29 12 -2 22 0 22 3 0 4
-89 19 -197 35 -301 42 -287 39 -291 58 -2 11 2 15 15 13 19 -4 218 -30 500
-65 89 -11 172 -19 185 -19 32 2 -119 25 -287 44 -77 9 -192 25 -256 35 -64
11 -132 20 -152 20 -20 0 -38 4 -41 8 -6 9 74 2 409 -38z m4317 -46 c37 -9 68
-20 68 -25 0 -4 -15 -10 -32 -14 -18 -4 -82 -22 -143 -40 -60 -18 -128 -38
-150 -44 -22 -6 -141 -41 -265 -78 -355 -104 -455 -132 -457 -129 -2 2 16 11
39 21 24 10 63 27 88 38 25 11 92 39 150 63 58 25 130 55 160 68 138 61 221
97 295 131 89 40 116 41 247 9z m-1722 -49 c0 -2 -26 -16 -57 -30 -32 -15 -88
-40 -125 -57 l-66 -31 -112 13 c-62 7 -106 16 -99 20 8 4 61 15 119 24 58 10
152 28 210 41 112 25 130 28 130 20z m1909 -105 c134 -256 115 -527 -47 -685
-30 -30 -65 -58 -76 -61 -12 -3 -88 -35 -171 -69 -82 -34 -161 -66 -175 -70
-14 -4 -47 -18 -75 -30 -27 -13 -68 -30 -90 -38 -22 -9 -112 -46 -200 -83 -88
-36 -176 -72 -195 -79 -19 -8 -84 -35 -145 -60 -60 -26 -146 -62 -190 -80 -44
-18 -114 -47 -155 -65 -41 -17 -95 -40 -120 -50 -25 -9 -97 -39 -160 -65 -63
-26 -126 -51 -140 -56 -14 -4 -74 -29 -135 -54 -126 -53 -238 -96 -241 -92 -2
1 6 28 16 59 41 124 55 219 55 373 0 133 -3 162 -29 260 -29 114 -69 203 -118
266 -32 42 -34 49 -13 49 8 0 49 14 92 31 76 31 80 31 168 22 l90 -10 225 103
c238 108 296 130 505 190 72 20 168 48 215 62 47 13 117 32 155 42 39 10 138
37 220 60 83 23 191 52 240 66 50 13 164 46 255 73 91 27 175 49 186 50 17 1
29 -13 53 -59z m-2545 -65 c378 -37 386 -39 386 -62 0 -12 -9 -14 -47 -9 -27
3 -147 17 -268 31 -351 40 -336 38 -295 46 55 10 64 10 224 -6z m-2064 -175
c96 -12 272 -35 390 -51 118 -16 256 -33 305 -39 50 -6 153 -19 230 -30 77
-11 165 -22 195 -25 30 -3 114 -14 185 -25 72 -10 171 -24 220 -30 94 -11 477
-62 625 -83 l85 -13 -83 -22 c-59 -17 -96 -21 -130 -17 -49 6 -297 44 -617 95
-104 16 -278 44 -385 60 -390 61 -638 101 -775 125 -77 13 -189 32 -250 40
-245 36 -242 44 5 15z m-115 -60 c238 -42 464 -80 535 -90 41 -6 122 -19 180
-29 58 -11 125 -22 150 -25 46 -6 267 -43 575 -96 94 -16 193 -31 220 -35 28
-4 106 -17 175 -30 69 -13 172 -31 230 -40 58 -9 115 -19 128 -22 35 -8 26
-25 -10 -19 -38 6 -321 42 -673 85 -271 34 -485 55 -491 48 -3 -2 19 -7 48
-11 29 -4 123 -20 208 -36 85 -16 238 -43 340 -60 102 -17 257 -44 345 -60 88
-16 195 -34 238 -41 70 -11 79 -15 93 -40 13 -27 13 -29 -3 -29 -28 1 -232 26
-428 55 -99 14 -277 39 -395 55 -118 16 -250 35 -293 41 -80 11 -121 6 -51 -6
22 -4 95 -20 164 -35 218 -50 688 -134 890 -160 145 -19 151 -20 161 -48 5
-13 8 -27 5 -29 -2 -3 -37 0 -78 6 -152 22 -334 51 -358 56 -64 14 -586 76
-614 73 -68 -7 315 -84 734 -148 113 -17 235 -38 273 -47 60 -14 67 -18 67
-39 0 -13 -6 -24 -13 -24 -8 0 -90 11 -183 25 -93 15 -216 33 -274 41 -58 8
-191 28 -296 44 -484 75 -168 -5 491 -125 105 -19 211 -37 238 -41 43 -6 47
-9 47 -33 0 -15 -2 -30 -5 -32 -2 -3 -40 0 -82 7 -43 7 -168 26 -278 43 -221
34 -482 77 -737 119 -92 16 -165 25 -162 21 2 -4 45 -16 96 -28 51 -12 131
-31 177 -42 94 -22 451 -93 521 -104 25 -3 99 -17 165 -30 66 -12 159 -28 208
-35 l87 -12 0 -38 0 -37 -49 9 c-27 5 -77 12 -112 17 -70 10 -320 55 -554 101
-306 59 -644 115 -652 107 -2 -2 77 -23 174 -46 280 -67 334 -79 429 -95 140
-24 397 -72 534 -101 227 -47 220 -44 220 -70 0 -13 -4 -27 -10 -30 -10 -6
-211 19 -290 36 -25 5 -108 20 -185 34 -143 25 -257 47 -470 91 -66 13 -174
33 -240 44 -66 11 -131 22 -145 25 -22 4 -23 3 -5 -5 28 -14 461 -116 595
-141 36 -6 121 -24 190 -39 69 -16 143 -31 165 -35 22 -3 90 -17 150 -29 61
-13 135 -29 167 -35 54 -12 56 -13 49 -39 -12 -42 -21 -41 -481 58 -80 17
-170 35 -200 41 -30 5 -118 23 -195 39 -238 50 -467 92 -472 86 -6 -6 76 -31
167 -50 36 -8 119 -27 185 -44 66 -16 174 -41 240 -56 66 -15 176 -40 245 -56
264 -61 446 -100 462 -100 22 0 29 -12 18 -30 -9 -15 -13 -14 -290 55 -52 13
-122 29 -155 35 -33 6 -112 23 -175 37 -63 14 -126 28 -140 30 -73 14 -343 67
-470 93 -80 16 -212 43 -295 60 -416 84 -892 199 -887 215 6 21 87 8 582 -91
69 -14 136 -27 150 -30 14 -3 22 -3 19 0 -7 8 -130 42 -213 60 -104 23 -286
65 -403 93 -111 27 -112 27 -106 52 3 15 7 29 9 32 2 4 36 -1 76 -11 40 -9
111 -23 158 -30 47 -6 156 -24 243 -39 86 -15 157 -24 157 -21 0 4 -51 17
-112 29 -62 13 -174 36 -248 51 -74 16 -146 31 -160 33 -117 19 -111 16 -104
56 4 20 7 37 8 38 1 1 26 -4 56 -12 49 -12 210 -36 345 -50 l50 -5 -50 14
c-65 18 -309 75 -357 83 -36 5 -38 8 -38 43 l0 37 48 -7 c26 -5 79 -10 117
-13 l70 -6 -117 31 -118 30 0 39 0 39 58 -6 c31 -3 90 -10 130 -16 41 -5 76
-7 79 -5 3 3 -17 8 -44 12 -26 3 -90 16 -140 27 l-93 20 0 35 c0 34 1 35 33
29 52 -9 192 -19 187 -13 -3 3 -52 15 -110 27 -112 23 -126 31 -132 70 -3 24
-2 25 57 22 33 -1 85 -4 115 -7 l55 -4 -57 18 c-31 10 -78 22 -105 25 -75 11
-82 15 -104 58 l-21 41 89 -7 c48 -4 102 -9 118 -12 25 -4 27 -3 12 6 -9 6
-68 22 -130 36 -61 14 -119 32 -127 41 -17 18 -6 17 185 -17z m4615 -560 c33
-61 28 -313 -7 -389 -11 -24 -137 -161 -333 -362 -173 -178 -360 -370 -415
-427 l-100 -103 -12 103 c-15 138 -36 227 -73 323 -27 71 -95 183 -105 173 -2
-2 7 -26 20 -53 58 -122 105 -353 105 -514 0 -91 -1 -93 -35 -136 -57 -69 -63
-66 -64 32 -3 189 -87 461 -166 533 l-27 25 30 -60 c17 -33 46 -114 64 -180
31 -115 32 -128 33 -302 l0 -182 -84 -85 c-47 -47 -86 -84 -88 -82 -2 2 3 19
11 38 34 81 48 177 43 296 -2 65 -7 129 -11 145 -21 89 -63 198 -101 260 l-43
70 74 63 c93 80 260 216 334 274 76 60 265 215 314 258 21 19 78 52 125 74 93
42 100 45 236 109 67 32 216 99 262 118 1 1 7 -8 13 -19z m-762 -293 c-15 -12
-89 -67 -163 -122 -75 -55 -173 -128 -218 -162 -120 -91 -144 -108 -232 -174
l-80 -60 -190 7 c-104 3 -221 9 -260 13 l-70 6 35 14 c19 8 69 28 110 46 41
18 111 47 155 64 44 18 105 43 135 56 30 13 93 39 140 58 216 89 386 161 515
215 77 33 142 60 145 61 3 1 -7 -9 -22 -22z m-3503 -186 c77 -16 200 -42 274
-57 73 -16 129 -30 123 -32 -5 -1 -59 4 -119 13 -175 25 -323 44 -395 50 -56
5 -68 10 -68 24 0 39 7 39 185 2z m4372 -52 c48 -11 167 -36 262 -55 96 -19
181 -39 189 -43 9 -5 -7 -19 -55 -44 -37 -20 -97 -53 -133 -73 -36 -20 -89
-49 -117 -65 -140 -77 -402 -222 -443 -246 -20 -11 -71 -39 -115 -63 -44 -23
-84 -46 -90 -50 -5 -4 -91 -51 -190 -105 -99 -53 -209 -113 -245 -132 l-65
-36 115 119 c340 351 793 814 796 814 2 0 43 -9 91 -21z m-4262 -78 c94 -11
215 -25 271 -31 56 -6 112 -13 125 -15 52 -9 271 -35 384 -45 66 -6 165 -21
220 -32 55 -11 118 -24 140 -28 97 -17 313 -62 340 -70 26 -7 24 -8 -14 -5
-86 8 -246 15 -236 11 18 -8 258 -46 350 -55 50 -6 194 -21 320 -35 127 -13
284 -30 350 -36 66 -6 203 -21 303 -33 154 -19 186 -25 198 -42 33 -44 12 -47
-176 -24 -269 33 -869 97 -1078 115 -181 15 -306 16 -162 0 41 -4 152 -18 245
-31 94 -13 240 -31 325 -40 85 -9 182 -20 215 -25 33 -5 152 -21 265 -35 378
-47 420 -58 420 -102 0 -22 6 -22 -740 72 -107 14 -242 30 -300 35 -58 6 -118
12 -135 15 -16 2 -91 9 -165 14 -74 6 -157 13 -184 16 -27 2 -46 2 -44 -1 12
-11 392 -64 898 -124 130 -16 368 -48 537 -72 145 -20 152 -22 158 -46 3 -14
2 -28 -2 -32 -4 -4 -84 3 -178 16 -319 44 -620 83 -680 88 -67 6 -314 34 -360
41 -16 2 -77 7 -135 9 l-105 6 75 -14 c123 -22 142 -25 220 -36 41 -6 172 -24
290 -41 118 -16 305 -43 415 -59 110 -16 252 -37 315 -45 63 -9 123 -19 133
-21 23 -7 23 -54 0 -54 -21 0 -198 22 -438 55 -99 14 -223 29 -275 35 -52 5
-180 18 -285 30 -208 22 -210 22 -204 16 4 -4 127 -25 459 -76 113 -17 286
-44 385 -60 99 -16 224 -34 278 -41 94 -11 97 -12 97 -37 l0 -25 -77 7 c-43 4
-150 18 -238 31 -535 80 -733 105 -935 120 -85 6 -42 -9 85 -30 50 -8 126 -22
170 -30 44 -9 139 -24 210 -35 72 -11 141 -22 155 -25 14 -3 72 -12 130 -20
166 -24 443 -65 471 -71 21 -4 25 -9 21 -30 -4 -21 -9 -24 -36 -19 -157 26
-223 36 -296 45 -47 5 -96 12 -110 15 -67 13 -402 57 -765 101 -94 11 -279 24
-283 19 -3 -3 1 -5 9 -5 27 0 248 -36 279 -45 9 -3 65 -12 125 -20 61 -8 250
-37 420 -65 171 -28 342 -56 381 -61 38 -5 110 -17 160 -27 79 -15 89 -19 86
-37 -2 -11 -5 -21 -5 -22 -3 -3 -440 53 -487 62 -14 3 -63 10 -110 16 -47 6
-179 24 -295 39 -115 16 -237 32 -270 36 -33 4 -67 8 -75 9 -124 20 -245 35
-258 33 -20 -4 275 -61 668 -128 69 -12 130 -23 135 -24 6 -2 33 -6 60 -10 50
-7 315 -51 498 -83 98 -17 118 -26 99 -45 -7 -7 -70 -1 -204 21 -106 18 -206
35 -223 37 -16 3 -113 18 -215 34 -102 15 -230 36 -285 44 -55 9 -111 18 -125
21 -14 3 -56 10 -95 16 -38 6 -153 23 -255 39 -102 16 -207 32 -235 36 -27 4
-54 8 -60 10 -13 3 -234 39 -715 115 -507 80 -580 92 -580 100 0 21 32 26 125
18 100 -8 212 -10 165 -2 -44 7 -235 46 -238 49 -2 1 3 15 12 31 l15 29 108
-12 c59 -7 126 -15 148 -18 97 -12 -23 20 -195 51 -37 7 -44 12 -42 28 2 11 7
24 12 29 5 5 65 3 140 -4 72 -6 133 -10 135 -8 2 2 -57 15 -131 28 l-134 25 0
31 0 31 123 -18 c67 -10 133 -18 147 -18 27 1 -71 23 -190 43 l-75 12 -3 35
-3 35 83 -7 c46 -4 112 -9 148 -13 76 -6 44 2 -110 29 -129 23 -127 22 -133
53 -3 15 -4 28 -2 30 2 2 72 -6 156 -17 192 -25 409 -45 416 -38 2 3 -22 9
-54 12 -32 4 -105 16 -163 26 -58 11 -164 27 -237 36 -100 13 -133 21 -136 33
-3 8 -8 24 -13 34 -7 18 -4 19 36 12 24 -4 65 -9 90 -12 25 -3 151 -18 280
-34 129 -16 271 -31 315 -34 112 -7 111 -7 -520 85 -77 11 -156 23 -176 26
-27 4 -40 12 -48 30 -7 14 -10 28 -7 30 2 2 50 -3 107 -11 57 -8 181 -22 275
-31 94 -8 253 -24 354 -35 198 -22 206 -22 199 -15 -7 6 -171 30 -334 49 -71
9 -195 25 -275 36 -80 11 -190 25 -244 31 -108 11 -116 13 -116 35 0 12 7 14
28 10 15 -3 104 -14 197 -25z m4889 -121 c52 -84 79 -261 62 -403 -7 -55 -15
-63 -109 -116 -29 -16 -148 -90 -237 -146 -19 -12 -61 -39 -92 -59 -120 -75
-250 -158 -506 -323 -161 -103 -992 -654 -1076 -714 -26 -19 -55 -38 -64 -44
-8 -5 -52 -37 -98 -70 -195 -141 -285 -209 -292 -219 -3 -6 5 -3 18 7 14 9 32
20 40 24 8 3 34 19 57 35 23 15 45 28 48 28 4 0 25 13 48 29 23 15 110 70 192
121 145 90 200 124 295 186 25 16 52 32 60 36 8 4 85 53 170 108 85 55 186
119 223 142 124 78 409 259 522 333 28 18 91 59 142 91 51 33 143 92 205 131
355 228 412 263 416 258 3 -3 3 -6 1 -8 -3 -3 -307 -207 -383 -257 -12 -8 -56
-37 -97 -65 -41 -27 -82 -54 -91 -60 -9 -5 -110 -73 -223 -150 -114 -77 -217
-147 -230 -155 -30 -19 -160 -106 -200 -134 -16 -11 -133 -90 -260 -175 -126
-85 -357 -240 -513 -345 -156 -105 -291 -196 -300 -201 -21 -13 -139 -92 -216
-145 -32 -22 -61 -38 -64 -35 -3 3 0 74 5 157 20 284 -31 601 -112 698 -29 34
-27 55 7 73 50 25 223 118 318 171 l85 48 80 -16 79 -16 36 34 c19 18 78 75
130 125 56 54 121 105 160 126 36 19 83 46 105 59 22 12 69 39 105 58 36 19
119 65 185 103 176 100 373 210 500 280 55 30 281 157 330 185 22 12 63 35 90
50 28 15 128 71 224 123 191 105 184 104 225 37z m-2654 -140 c58 -6 179 -20
270 -31 91 -10 170 -19 176 -19 7 0 15 -7 18 -16 7 -19 -5 -18 -439 27 -154
16 -284 29 -290 30 -5 0 4 7 20 15 32 15 68 14 245 -6z m-2470 -257 c-33 -102
-144 -242 -178 -224 -10 4 -48 16 -87 25 -156 39 -226 59 -218 66 8 6 79 34
248 97 196 73 240 88 243 81 2 -4 -2 -25 -8 -45z m-375 -252 c39 -10 104 -28
145 -40 126 -37 239 -69 375 -107 72 -20 173 -48 225 -64 52 -15 147 -42 210
-60 63 -18 158 -45 210 -60 52 -16 154 -45 225 -65 72 -20 173 -50 225 -65
140 -41 575 -164 705 -200 39 -10 111 -30 160 -45 50 -14 117 -33 150 -42 33
-9 69 -25 80 -36 20 -19 20 -19 -15 -13 -19 3 -80 19 -135 35 -55 16 -154 43
-220 61 -119 31 -216 58 -430 119 -60 17 -128 35 -150 40 -22 5 -121 30 -220
56 -313 83 -288 69 90 -50 132 -41 285 -89 340 -105 116 -35 203 -62 405 -125
80 -25 183 -57 230 -72 150 -46 167 -54 179 -79 6 -13 7 -24 3 -24 -12 0 -162
39 -232 60 -36 10 -112 32 -170 49 -172 48 -343 97 -550 157 -107 31 -213 60
-235 65 -22 4 -76 19 -120 33 -43 14 -81 24 -83 22 -7 -7 374 -138 688 -236
107 -33 245 -76 305 -95 61 -19 148 -45 195 -59 225 -64 227 -65 233 -88 4
-12 5 -24 3 -25 -5 -5 -108 22 -306 82 -179 53 -279 82 -500 144 -363 102
-462 124 -350 77 56 -23 411 -138 595 -194 55 -16 147 -44 205 -61 58 -17 153
-47 212 -66 59 -19 113 -35 120 -35 22 0 36 -14 43 -42 7 -27 6 -27 -21 -19
-150 46 -216 66 -324 96 -69 20 -168 49 -220 64 -52 16 -147 43 -210 61 -63
18 -167 48 -230 66 -63 18 -128 36 -145 39 -31 6 138 -61 190 -75 17 -4 66
-20 110 -35 162 -56 244 -83 435 -144 480 -152 430 -133 430 -163 0 -16 -3
-28 -6 -28 -4 0 -59 16 -123 36 -262 81 -617 189 -691 209 -25 7 -85 25 -135
40 -49 15 -135 41 -190 57 -55 17 -142 44 -193 60 -52 16 -96 27 -98 25 -3 -3
8 -9 23 -15 196 -72 664 -230 938 -316 61 -19 146 -47 190 -61 44 -15 103 -32
130 -40 28 -7 76 -23 108 -35 52 -19 57 -24 57 -51 0 -16 -3 -29 -7 -29 -5 0
-51 14 -103 30 -52 17 -138 44 -190 60 -96 30 -254 80 -410 130 -196 63 -481
154 -565 180 -49 15 -130 40 -180 55 -49 15 -97 29 -105 32 -36 9 85 -42 185
-78 61 -22 139 -51 175 -64 36 -13 157 -54 270 -90 506 -164 873 -286 900
-300 18 -9 30 -23 30 -35 0 -30 8 -32 -270 51 -58 17 -143 44 -190 59 -151 49
-274 88 -295 93 -11 3 -51 16 -90 30 -38 14 -164 55 -280 92 -115 37 -250 80
-298 97 -48 17 -90 28 -93 26 -5 -6 95 -46 226 -93 41 -14 104 -37 140 -50 87
-32 447 -154 485 -165 17 -4 163 -54 325 -110 162 -56 303 -104 313 -107 11
-3 16 -12 13 -20 -3 -8 -6 -19 -6 -25 0 -6 -13 -7 -32 -3 -26 6 -397 128 -593
195 -16 6 -111 37 -210 70 -99 33 -193 65 -210 71 -26 9 -222 73 -445 145 -76
24 -116 31 -70 12 39 -16 176 -68 280 -105 52 -19 124 -45 160 -58 192 -70
299 -108 335 -120 22 -7 105 -36 185 -65 210 -75 457 -160 517 -179 53 -16 64
-33 26 -39 -20 -3 -198 55 -633 205 -102 35 -205 70 -230 77 -25 8 -137 46
-250 85 -113 40 -270 94 -350 121 -80 27 -278 95 -440 150 -162 56 -326 112
-365 125 -91 30 -342 116 -472 162 -63 22 -103 41 -103 49 0 22 -11 24 250
-55 301 -91 476 -144 495 -148 11 -3 56 -16 99 -29 43 -14 81 -23 83 -20 6 6
-880 296 -905 296 -7 0 -12 13 -12 30 0 17 3 30 6 30 3 0 49 -13 102 -29 94
-28 188 -55 417 -119 236 -67 297 -83 301 -79 2 2 -31 14 -74 26 -42 13 -102
31 -132 41 -30 10 -118 37 -195 60 -77 23 -158 48 -180 55 -22 8 -80 26 -130
41 -49 14 -95 30 -101 35 -10 8 -12 44 -3 53 3 3 50 -8 104 -24 55 -17 142
-41 193 -55 51 -14 125 -34 164 -45 40 -11 79 -20 88 -19 16 0 -94 44 -150 59
-19 5 -118 36 -219 68 -176 57 -184 61 -186 86 -1 32 4 32 113 2 78 -22 229
-57 242 -56 5 1 -209 72 -305 102 -47 14 -50 18 -53 51 l-3 35 68 -19 c366
-99 382 -94 36 12 -80 25 -102 36 -107 53 -3 11 -2 24 2 28 4 4 45 -4 92 -18
87 -25 263 -64 255 -55 -6 5 -202 70 -292 96 -59 17 -63 20 -63 48 0 26 3 29
23 23 12 -4 82 -20 156 -37 135 -30 182 -34 94 -6 -278 87 -281 88 -287 120
-3 17 -5 31 -4 32 2 1 64 -13 138 -31 205 -50 202 -42 -10 31 -178 60 -208 87
-55 46z m760 -111 c77 -11 212 -32 300 -46 155 -24 336 -52 730 -114 105 -16
280 -43 390 -60 110 -17 250 -40 310 -50 61 -11 207 -33 325 -50 310 -45 298
-36 155 -104 -66 -31 -155 -74 -197 -95 l-77 -39 -98 28 c-119 35 -313 89
-448 125 -55 14 -145 40 -200 56 -55 16 -113 31 -130 35 -16 3 -75 19 -130 34
-55 16 -154 43 -220 60 -66 18 -165 45 -220 60 -55 16 -152 42 -215 59 -110
30 -268 74 -375 105 -27 8 -48 14 -45 15 3 0 68 -8 145 -19z"/>
<path d="M4880 5396 c-8 -92 -18 -159 -24 -161 -6 -2 -67 -8 -136 -15 -69 -6
-152 -15 -185 -20 -33 -5 -118 -14 -190 -20 -71 -6 -206 -20 -300 -31 -93 -11
-228 -26 -300 -34 -71 -8 -141 -17 -155 -20 -14 -3 -80 -13 -148 -22 -67 -9
-120 -18 -118 -21 5 -4 241 15 290 24 23 3 317 29 456 39 47 4 204 17 350 30
146 14 297 27 335 30 39 2 90 7 115 10 l45 6 -3 142 c-6 229 -16 249 -32 63z"/>
<path d="M3030 4802 c-14 -1 -66 -12 -117 -22 -50 -11 -136 -26 -190 -35 -131
-20 -260 -48 -263 -58 -1 -4 6 -51 16 -105 13 -66 19 -145 19 -249 0 -83 3
-146 7 -139 17 31 30 199 25 322 l-7 131 38 11 c20 6 114 29 207 51 94 23 196
48 228 58 31 9 60 14 63 10 3 -3 15 -41 27 -84 27 -99 30 -288 5 -343 -15 -34
-19 -36 -139 -68 -272 -72 -319 -86 -315 -89 6 -6 169 16 271 37 50 10 118 24
151 30 61 12 62 13 68 49 13 85 18 241 8 308 -9 61 -49 166 -70 184 -4 3 -18
3 -32 1z"/>
<path d="M4925 3975 c-66 -19 -172 -49 -235 -66 -117 -32 -154 -43 -505 -149
-239 -73 -577 -181 -695 -222 -47 -17 -121 -43 -165 -58 -177 -63 -229 -84
-212 -88 9 -2 67 10 127 27 61 17 117 31 124 31 7 0 60 14 117 30 57 17 151
44 209 61 224 65 431 130 685 216 88 30 174 58 190 63 17 5 93 31 170 60 77
28 167 60 199 71 61 21 139 58 121 58 -5 0 -64 -16 -130 -34z"/>
</g>
</svg>
