<?xml version="1.0" standalone="no"?>
<!DOCTYPE svg PUBLIC "-//W3C//DTD SVG 20010904//EN"
 "http://www.w3.org/TR/2001/REC-SVG-20010904/DTD/svg10.dtd">
<svg version="1.0" xmlns="http://www.w3.org/2000/svg"
 width="1610.000000pt" height="847.000000pt" viewBox="0 0 1610.000000 847.000000"
 preserveAspectRatio="xMidYMid meet">
<metadata>
Created by potrace 1.16, written by Peter Selinger 2001-2019
</metadata>
<g transform="translate(0.000000,847.000000) scale(0.100000,-0.100000)"
fill="#000000" stroke="none">
<path d="M12650 7818 c-191 -205 -433 -368 -655 -442 -141 -47 -239 -59 -445
-53 -212 6 -278 16 -695 112 -513 118 -707 145 -1025 145 -113 0 -245 -5 -295
-10 -309 -35 -620 -118 -935 -251 -119 -50 -426 -201 -443 -218 -5 -5 90 23
210 61 559 177 923 250 1258 251 263 1 385 -20 910 -153 379 -97 573 -136 729
-150 318 -28 740 57 1241 249 71 28 130 49 132 47 3 -3 354 -1134 624 -2011
373 -1211 780 -2528 905 -2929 68 -219 122 -401 120 -403 -2 -2 -282 52 -622
121 -944 190 -1351 261 -1769 305 -1183 127 -2120 -38 -3468 -609 -81 -34
-146 -64 -144 -66 2 -2 51 13 108 34 303 113 805 267 1129 347 634 156 1113
212 1725 202 743 -13 1340 -112 2899 -483 219 -52 401 -94 406 -92 4 2 -130
455 -296 1008 -694 2298 -1140 3784 -1400 4668 -65 221 -120 402 -123 401 -3
0 -40 -37 -81 -81z"/>
<path d="M5440 7749 c-588 -28 -1328 -158 -2315 -407 l-110 -28 -36 -140 c-20
-76 -170 -663 -334 -1304 -301 -1182 -494 -1940 -829 -3252 -102 -400 -186
-733 -186 -741 0 -10 99 3 437 60 1319 221 2032 308 2813 344 304 14 844 6
1110 -16 662 -55 1219 -178 1709 -379 107 -43 80 -22 -36 29 -1001 440 -2055
592 -3418 495 -427 -31 -768 -68 -1683 -181 -359 -45 -656 -79 -659 -76 -5 6
101 449 612 2552 183 754 395 1627 471 1941 l138 572 120 27 c761 169 1294
265 1757 316 278 30 821 38 1084 15 568 -49 1137 -189 1727 -425 95 -38 174
-68 175 -67 2 1 -37 27 -85 58 -593 381 -1198 569 -1951 608 -220 11 -274 11
-511 -1z"/>
<path d="M2795 7033 c-80 -188 -118 -264 -181 -360 -64 -96 -116 -144 -199
-184 l-59 -29 -83 -317 c-148 -569 -319 -1206 -653 -2443 -354 -1311 -497
-1843 -643 -2405 l-94 -360 151 -6 c565 -23 1371 -2 2861 76 930 49 1303 64
1832 75 452 9 1106 1 1428 -19 161 -10 143 -18 207 99 142 260 340 478 499
549 l43 20 -29 11 c-176 67 -650 192 -929 245 -428 80 -691 105 -1189 112
-675 9 -963 -16 -2297 -201 -515 -71 -862 -110 -1220 -136 -190 -14 -750 -25
-750 -15 0 7 123 494 979 3880 214 847 388 1541 387 1542 -2 2 -29 -59 -61
-134z"/>
<path d="M13324 7160 c3 -8 211 -827 461 -1820 251 -993 557 -2204 681 -2692
123 -488 224 -892 224 -899 0 -9 -65 -11 -277 -6 -519 12 -932 56 -1772 192
-895 144 -1235 184 -1744 207 -521 23 -1089 -23 -1602 -128 -170 -35 -388 -88
-520 -125 -135 -38 -485 -153 -485 -158 0 -3 25 -17 56 -30 166 -72 366 -298
490 -554 l47 -98 41 6 c23 3 156 9 296 15 862 32 1399 23 3010 -55 904 -44
1092 -52 1480 -66 337 -13 1595 -17 1606 -6 13 12 -242 962 -687 2567 -439
1581 -639 2316 -770 2824 l-33 128 -44 19 c-145 62 -239 190 -376 507 -41 96
-77 176 -81 180 -3 4 -4 0 -1 -8z"/>
<path d="M8067 6910 c-11 -136 -45 -724 -57 -975 -23 -499 -30 -783 -36 -1345
-10 -897 18 -1717 86 -2515 11 -126 20 -239 20 -249 0 -11 2 -17 5 -15 12 12
53 586 76 1054 27 570 22 2059 -11 2855 -17 412 -65 1235 -74 1265 -1 6 -6
-28 -9 -75z"/>
<path d="M2345 6692 l-180 -3 -228 -757 c-235 -785 -372 -1238 -1152 -3829
-256 -847 -465 -1543 -465 -1545 0 -1 75 -2 167 0 93 1 1679 23 3526 48 l3358
45 87 -82 c236 -222 420 -312 637 -313 206 -1 399 94 619 305 l95 90 3363 -45
c1850 -25 3436 -47 3526 -48 103 -2 162 1 162 7 0 6 -41 145 -91 310 -321
1066 -1719 5709 -1745 5797 -5 15 -25 17 -185 20 -98 2 -179 1 -179 -2 0 -3
53 -28 118 -55 l117 -50 802 -2889 c442 -1589 801 -2892 798 -2894 -6 -6
-3052 50 -4460 83 -572 13 -1263 27 -1535 31 l-496 7 -51 -32 c-116 -71 -223
-87 -304 -46 -54 28 -131 113 -203 225 -110 170 -127 193 -175 243 -146 154
-251 108 -455 -199 -143 -217 -244 -296 -372 -296 -71 0 -158 35 -229 91 l-40
33 -150 -6 c-768 -31 -6010 -143 -6259 -134 l-82 3 802 2888 c441 1589 804
2890 806 2892 2 2 53 25 113 51 61 25 114 50 120 55 5 5 7 8 5 7 -3 -2 -86 -4
-185 -6z"/>
<path d="M8012 1700 c-150 -54 -366 -269 -586 -583 -43 -63 -78 -124 -82 -145
-6 -31 -3 -39 22 -60 25 -22 35 -24 90 -19 103 8 134 32 214 167 120 203 235
346 344 427 50 37 65 43 106 43 41 0 56 -6 98 -39 99 -79 233 -248 345 -439
67 -113 94 -136 179 -154 63 -12 103 -1 120 36 16 36 -19 101 -154 281 -123
165 -327 379 -419 439 -101 66 -183 80 -277 46z"/>
</g>
</svg>
